<svg viewBox="0 0 100 100" xmlns="http://www.w3.org/2000/svg">
  <path fill="#1e1f26" d="M100 34.2c-.4-2.6-3.3-4-5.3-5.3-3.6-2.4-7.1-4.7-10.7-7.1-8.5-5.7-17.1-11.4-25.6-17.1-2-1.3-4-2.7-6-4-1.4-1-3.3-1-4.8 0-5.7 3.8-11.5 7.7-17.2 11.5L5.2 29C3 30.4.1 31.8 0 34.8c-.1 3.3 0 6.7 0 10v10.4c0 2.7-.2 5.6.5 8.1.5 1.9 2.2 3.1 3.8 4.1 5.7 3.9 11.5 7.7 17.3 11.5 8.5 5.7 17.1 11.4 25.6 17.1 2 1.3 4 2.7 6 4 1.3.9 3.1.9 4.5-.1 4.4-2.9 8.8-5.9 13.2-8.8 10.8-7.2 21.6-14.4 32.4-21.6 1.8-1.3 3.6-2.4 4.5-4.5.7-1.5.5-3.2.5-4.8v-12c0-3.2.2-6.4-.3-9.6zM54.3 12.3L88 34.8 73.5 44.5 54.3 30.7V12.3zM45.7 12.3v18.4L26.5 44.5 12 34.8l33.7-22.5zm-36.4 30l10.3 6.9-10.3 6.9v-13.8zM45.7 87.7L12 65.2l14.5-9.7 19.2 13.8v18.4zM50 60.7L35.3 50 50 39.3 64.7 50 50 60.7zm4.3 27v-18.4l19.2-13.8L88 65.2 54.3 87.7zm36.4-30L80.4 50l10.3-6.9v13.8z"/>
</svg>
